<svg preserveAspectRatio="none" overflow="visible" style="display: block;" width="233.6" height="243.6" viewBox="0 0 233.6 243.6" fill="none" xmlns="http://www.w3.org/2000/svg">
<g id="Rectangle 2628" filter="url(#filter0_f_0_11)">
<path d="M94.3 4.3H229.3V239.3H11.3L4.3 227.3L8.8 220.8V215.3L9.8 209.3L12.8 204.3L16.3 197.8L20.3 193.3L21.8 187.8L23.3 185.3L25.8 177.8L28.3 174.3V167.8L35.3 160.8L38.8 150.8L44.3 145.8V122.8L51.3 101.8L60.8 93.3L65.3 76.3L73.8 73.3L65.3 67.8V57.3L67.8 50.8L65.3 43.8L73.8 33.8V24.3L76.8 12.8L82.8 6.3L94.3 4.3Z" fill="#D9D9D9"/>
</g>
<defs>
<filter id="filter0_f_0_11" x="0" y="0" width="233.6" height="243.6" filterUnits="userSpaceOnUse" color-interpolation-filters="sRGB">
<feFlood flood-opacity="0" result="BackgroundImageFix"/>
<feBlend mode="normal" in="SourceGraphic" in2="BackgroundImageFix" result="shape"/>
<feGaussianBlur stdDeviation="2.15" result="effect1_foregroundBlur_0_11"/>
</filter>
</defs>
</svg>
